<?xml version="1.0" encoding="iso-8859-1"?>
<!-- Generator: Adobe Illustrator 19.0.0, SVG Export Plug-In . SVG Version: 6.00 Build 0)  -->
<svg version="1.1" id="Capa_1" xmlns="http://www.w3.org/2000/svg" xmlns:xlink="http://www.w3.org/1999/xlink" x="0px" y="0px"
	 viewBox="0 0 512 512" style="enable-background:new 0 0 512 512;" xml:space="preserve">
<g>
	<g>
		<path d="M138.667,85.333h-64C68.776,85.333,64,90.109,64,96v42.667c0,5.891,4.776,10.667,10.667,10.667h64
			c5.891,0,10.667-4.776,10.667-10.667V96C149.333,90.109,144.558,85.333,138.667,85.333z M128,128H85.333v-21.333H128V128z"/>
	</g>
</g>
<g>
	<g>
		<path d="M138.667,362.667h-64c-5.891,0-10.667,4.776-10.667,10.667V416c0,5.891,4.776,10.667,10.667,10.667h64
			c5.891,0,10.667-4.776,10.667-10.667v-42.667C149.333,367.442,144.558,362.667,138.667,362.667z M128,405.333H85.333V384H128
			V405.333z"/>
	</g>
</g>
<g>
	<g>
		<path d="M138.667,170.667h-64c-5.891,0-10.667,4.776-10.667,10.667v32h21.333V192H128v21.333h-21.333v21.333h32
			c5.891,0,10.667-4.776,10.667-10.667v-42.667C149.333,175.442,144.558,170.667,138.667,170.667z"/>
	</g>
</g>
<g>
	<g>
		<rect x="85.333" y="266.667" width="64" height="21.333"/>
	</g>
</g>
<g>
	<g>
		<rect x="64" y="320" width="85.333" height="21.333"/>
	</g>
</g>
<g>
	<g>
		<path d="M234.667,32h-32V21.333C202.667,9.551,193.115,0,181.333,0H128c-5.891,0-10.667,4.776-10.667,10.667V32H96V10.667
			C96,4.776,91.224,0,85.333,0H32C20.218,0,10.667,9.551,10.667,21.333v224c0,5.891,4.776,10.667,10.667,10.667h21.333v21.333
			H21.333c-5.891,0-10.667,4.776-10.667,10.667v202.667C10.667,502.449,20.218,512,32,512h53.333C91.224,512,96,507.224,96,501.333
			V480h21.333v21.333c0,5.891,4.776,10.667,10.667,10.667h53.333c11.782,0,21.333-9.551,21.333-21.333V480h32
			c5.891,0,10.667-4.776,10.667-10.667V42.667C245.333,36.776,240.558,32,234.667,32z M224,458.667h-32
			c-5.891,0-10.667,4.776-10.667,10.667v21.333h-42.667v-21.333c0-5.891-4.776-10.667-10.667-10.667H85.333
			c-5.891,0-10.667,4.776-10.667,10.667v21.333H32v-192h21.333C59.224,298.667,64,293.891,64,288v-42.667
			c0-5.891-4.776-10.667-10.667-10.667H32V21.333h42.667v21.333c0,5.891,4.776,10.667,10.667,10.667H128
			c5.891,0,10.667-4.776,10.667-10.667V21.333h42.667v21.333c0,5.891,4.776,10.667,10.667,10.667h32V458.667z"/>
	</g>
</g>
<g>
	<g>
		<rect x="181.333" y="309.333" width="21.333" height="160"/>
	</g>
</g>
<g>
	<g>
		<rect x="181.333" y="42.667" width="21.333" height="160"/>
	</g>
</g>
<g>
	<g>
		<rect x="181.333" y="224" width="21.333" height="21.333"/>
	</g>
</g>
<g>
	<g>
		<rect x="181.333" y="266.667" width="21.333" height="21.333"/>
	</g>
</g>
<g>
	<g>
		<path d="M394.667,85.333h-64C324.776,85.333,320,90.109,320,96v42.667c0,5.891,4.776,10.667,10.667,10.667h64
			c5.891,0,10.667-4.776,10.667-10.667V96C405.333,90.109,400.558,85.333,394.667,85.333z M384,128h-42.667v-21.333H384V128z"/>
	</g>
</g>
<g>
	<g>
		<path d="M394.667,362.667h-64c-5.891,0-10.667,4.776-10.667,10.667V416c0,5.891,4.776,10.667,10.667,10.667h64
			c5.891,0,10.667-4.776,10.667-10.667v-42.667C405.333,367.442,400.558,362.667,394.667,362.667z M384,405.333h-42.667V384H384
			V405.333z"/>
	</g>
</g>
<g>
	<g>
		<path d="M394.667,170.667h-64c-5.891,0-10.667,4.776-10.667,10.667v32h21.333V192H384v21.333h-21.333v21.333h32
			c5.891,0,10.667-4.776,10.667-10.667v-42.667C405.333,175.442,400.558,170.667,394.667,170.667z"/>
	</g>
</g>
<g>
	<g>
		<rect x="341.333" y="266.667" width="64" height="21.333"/>
	</g>
</g>
<g>
	<g>
		<rect x="320" y="320" width="85.333" height="21.333"/>
	</g>
</g>
<g>
	<g>
		<path d="M490.667,32h-32V21.333C458.667,9.551,449.115,0,437.333,0H384c-5.891,0-10.667,4.776-10.667,10.667V32H352V10.667
			C352,4.776,347.224,0,341.333,0H288c-11.782,0-21.333,9.551-21.333,21.333v224c0,5.891,4.776,10.667,10.667,10.667h21.333v21.333
			h-21.333c-5.891,0-10.667,4.776-10.667,10.667v202.667c0,11.782,9.551,21.333,21.333,21.333h53.333
			c5.891,0,10.667-4.776,10.667-10.667V480h21.333v21.333c0,5.891,4.776,10.667,10.667,10.667h53.333
			c11.782,0,21.333-9.551,21.333-21.333V480h32c5.891,0,10.667-4.776,10.667-10.667V42.667C501.333,36.776,496.558,32,490.667,32z
			 M480,458.667h-32c-5.891,0-10.667,4.776-10.667,10.667v21.333h-42.667v-21.333c0-5.891-4.776-10.667-10.667-10.667h-42.667
			c-5.891,0-10.667,4.776-10.667,10.667v21.333H288v-192h21.333c5.891,0,10.667-4.776,10.667-10.667v-42.667
			c0-5.891-4.776-10.667-10.667-10.667H288V21.333h42.667v21.333c0,5.891,4.776,10.667,10.667,10.667H384
			c5.891,0,10.667-4.776,10.667-10.667V21.333h42.667v21.333c0,5.891,4.776,10.667,10.667,10.667h32V458.667z"/>
	</g>
</g>
<g>
	<g>
		<rect x="437.333" y="309.333" width="21.333" height="160"/>
	</g>
</g>
<g>
	<g>
		<rect x="437.333" y="42.667" width="21.333" height="160"/>
	</g>
</g>
<g>
	<g>
		<rect x="437.333" y="224" width="21.333" height="21.333"/>
	</g>
</g>
<g>
	<g>
		<rect x="437.333" y="266.667" width="21.333" height="21.333"/>
	</g>
</g>
<g>
</g>
<g>
</g>
<g>
</g>
<g>
</g>
<g>
</g>
<g>
</g>
<g>
</g>
<g>
</g>
<g>
</g>
<g>
</g>
<g>
</g>
<g>
</g>
<g>
</g>
<g>
</g>
<g>
</g>
</svg>
