<?xml version="1.0" encoding="iso-8859-1"?>
<!-- Generator: Adobe Illustrator 19.0.0, SVG Export Plug-In . SVG Version: 6.00 Build 0)  -->
<svg version="1.1" id="Capa_1" xmlns="http://www.w3.org/2000/svg" xmlns:xlink="http://www.w3.org/1999/xlink" x="0px" y="0px"
	 viewBox="0 0 512 512" style="enable-background:new 0 0 512 512;" xml:space="preserve">
<g>
	<g>
		<rect x="117.333" y="170.667" width="277.333" height="21.333"/>
	</g>
</g>
<g>
	<g>
		<path d="M426.667,53.333H85.333c-17.673,0-32,14.327-32,32v341.333c0,17.673,14.327,32,32,32h341.333c17.673,0,32-14.327,32-32
			V85.333C458.667,67.66,444.34,53.333,426.667,53.333z M437.333,426.667c0,5.891-4.776,10.667-10.667,10.667H85.333
			c-5.891,0-10.667-4.776-10.667-10.667V85.333c0-5.891,4.776-10.667,10.667-10.667h341.333c5.891,0,10.667,4.776,10.667,10.667
			V426.667z"/>
	</g>
</g>
<g>
	<g>
		<rect x="245.333" width="21.333" height="42.667"/>
	</g>
</g>
<g>
	<g>
		<rect x="320" y="21.333" width="21.333" height="21.333"/>
	</g>
</g>
<g>
	<g>
		<rect x="394.667" width="21.333" height="42.667"/>
	</g>
</g>
<g>
	<g>
		<rect x="96" width="21.333" height="42.667"/>
	</g>
</g>
<g>
	<g>
		<rect x="170.667" y="21.333" width="21.333" height="21.333"/>
	</g>
</g>
<g>
	<g>
		<rect x="245.333" y="469.333" width="21.333" height="42.667"/>
	</g>
</g>
<g>
	<g>
		<rect x="170.667" y="469.333" width="21.333" height="21.333"/>
	</g>
</g>
<g>
	<g>
		<rect x="96" y="469.333" width="21.333" height="42.667"/>
	</g>
</g>
<g>
	<g>
		<rect x="394.667" y="469.333" width="21.333" height="42.667"/>
	</g>
</g>
<g>
	<g>
		<rect x="320" y="469.333" width="21.333" height="21.333"/>
	</g>
</g>
<g>
	<g>
		<rect x="469.333" y="245.333" width="42.667" height="21.333"/>
	</g>
</g>
<g>
	<g>
		<rect x="469.333" y="320" width="21.333" height="21.333"/>
	</g>
</g>
<g>
	<g>
		<rect x="469.333" y="394.667" width="42.667" height="21.333"/>
	</g>
</g>
<g>
	<g>
		<rect x="469.333" y="96" width="42.667" height="21.333"/>
	</g>
</g>
<g>
	<g>
		<rect x="469.333" y="170.667" width="21.333" height="21.333"/>
	</g>
</g>
<g>
	<g>
		<rect y="245.333" width="42.667" height="21.333"/>
	</g>
</g>
<g>
	<g>
		<rect x="21.333" y="320" width="21.333" height="21.333"/>
	</g>
</g>
<g>
	<g>
		<rect y="394.667" width="42.667" height="21.333"/>
	</g>
</g>
<g>
	<g>
		<rect y="96" width="42.667" height="21.333"/>
	</g>
</g>
<g>
	<g>
		<rect x="21.333" y="170.667" width="21.333" height="21.333"/>
	</g>
</g>
<g>
	<g>
		<path d="M373.333,213.333v91.584l-68.416,68.416H138.667v-160h-21.333v160c0,11.782,9.551,21.333,21.333,21.333h170.667
			c2.829-0.001,5.541-1.125,7.541-3.125l74.667-74.667c2-2,3.125-4.713,3.125-7.541v-96H373.333z"/>
	</g>
</g>
<g>
	<g>
		<path d="M373.333,117.333H138.667c-11.782,0-21.333,9.551-21.333,21.333v10.667h21.333v-10.667h234.667v10.667h21.333v-10.667
			C394.667,126.885,385.115,117.333,373.333,117.333z"/>
	</g>
</g>
<g>
	<g>
		<path d="M341.333,213.333H170.667c-5.891,0-10.667,4.776-10.667,10.667v42.667c0,5.891,4.776,10.667,10.667,10.667h170.667
			c5.891,0,10.667-4.776,10.667-10.667V224C352,218.109,347.224,213.333,341.333,213.333z M330.667,256H181.333v-21.333h149.333V256
			z"/>
	</g>
</g>
<g>
	<g>
		<rect x="160" y="298.667" width="21.333" height="21.333"/>
	</g>
</g>
<g>
	<g>
		<rect x="202.667" y="298.667" width="21.333" height="21.333"/>
	</g>
</g>
<g>
	<g>
		<rect x="245.333" y="298.667" width="21.333" height="21.333"/>
	</g>
</g>
<g>
</g>
<g>
</g>
<g>
</g>
<g>
</g>
<g>
</g>
<g>
</g>
<g>
</g>
<g>
</g>
<g>
</g>
<g>
</g>
<g>
</g>
<g>
</g>
<g>
</g>
<g>
</g>
<g>
</g>
</svg>
