<?xml version="1.0" encoding="iso-8859-1"?>
<!-- Generator: Adobe Illustrator 19.0.0, SVG Export Plug-In . SVG Version: 6.00 Build 0)  -->
<svg version="1.1" id="Capa_1" xmlns="http://www.w3.org/2000/svg" xmlns:xlink="http://www.w3.org/1999/xlink" x="0px" y="0px"
	 viewBox="0 0 512 512" style="enable-background:new 0 0 512 512;" xml:space="preserve">
<g>
	<g>
		<path d="M426.667,0H85.333C55.893,0.035,32.035,23.893,32,53.333v405.333c0.035,29.441,23.893,53.298,53.333,53.333h341.333
			c29.441-0.035,53.298-23.893,53.333-53.333V53.333C479.965,23.893,456.107,0.035,426.667,0z M458.667,458.667
			c0,17.673-14.327,32-32,32H85.333c-17.673,0-32-14.327-32-32V53.333c0-17.673,14.327-32,32-32h341.333c17.673,0,32,14.327,32,32
			V458.667z"/>
	</g>
</g>
<g>
	<g>
		<path d="M106.667,42.667c-17.673,0-32,14.327-32,32c0,17.673,14.327,32,32,32c17.673,0,32-14.327,32-32
			C138.667,56.994,124.34,42.667,106.667,42.667z M106.667,85.333C100.776,85.333,96,80.558,96,74.667
			C96,68.776,100.776,64,106.667,64s10.667,4.776,10.667,10.667C117.333,80.558,112.558,85.333,106.667,85.333z"/>
	</g>
</g>
<g>
	<g>
		<path d="M405.333,42.667c-17.673,0-32,14.327-32,32c0,17.673,14.327,32,32,32s32-14.327,32-32
			C437.333,56.994,423.006,42.667,405.333,42.667z M405.333,85.333c-5.891,0-10.667-4.776-10.667-10.667
			c0-5.891,4.776-10.667,10.667-10.667C411.224,64,416,68.776,416,74.667C416,80.558,411.224,85.333,405.333,85.333z"/>
	</g>
</g>
<g>
	<g>
		<path d="M405.333,405.333c-17.673,0-32,14.327-32,32s14.327,32,32,32s32-14.327,32-32S423.006,405.333,405.333,405.333z
			 M405.333,448c-5.891,0-10.667-4.776-10.667-10.667c0-5.891,4.776-10.667,10.667-10.667c5.891,0,10.667,4.776,10.667,10.667
			C416,443.224,411.224,448,405.333,448z"/>
	</g>
</g>
<g>
	<g>
		<path d="M106.667,405.333c-17.673,0-32,14.327-32,32s14.327,32,32,32c17.673,0,32-14.327,32-32S124.34,405.333,106.667,405.333z
			 M106.667,448C100.776,448,96,443.224,96,437.333c0-5.891,4.776-10.667,10.667-10.667s10.667,4.776,10.667,10.667
			C117.333,443.224,112.558,448,106.667,448z"/>
	</g>
</g>
<g>
	<g>
		<path d="M365.301,298.507c47.128-60.365,36.398-147.506-23.967-194.634c-60.365-47.128-147.506-36.398-194.634,23.967
			s-36.398,147.506,23.967,194.634v12.267l-15.435,7.659c-3.634,1.816-5.921,5.538-5.899,9.6v42.667
			c-0.022,4.062,2.265,7.784,5.899,9.6l15.435,7.659V416c0,11.782,9.551,21.333,21.333,21.333h128
			c11.782,0,21.333-9.551,21.333-21.333v-4.075l15.435-7.659c3.634-1.816,5.921-5.538,5.899-9.6V352
			c0.002-4.043-2.282-7.739-5.899-9.547l-15.435-7.712v-12.267C350.273,315.496,358.322,307.446,365.301,298.507z M325.899,350.933
			l15.435,7.659v29.483l-15.435,7.659c-3.634,1.816-5.921,5.538-5.899,9.6V416H192v-10.667c0.002-4.043-2.282-7.74-5.899-9.547
			l-15.435-7.712v-29.483l15.435-7.659c3.634-1.816,5.921-5.538,5.899-9.6v-24.181c0-3.427-1.647-6.646-4.427-8.651
			c-10.365-7.441-19.447-16.523-26.888-26.888c-37.791-52.641-25.753-125.95,26.888-163.741
			c52.641-37.791,125.95-25.753,163.741,26.888c37.791,52.641,25.753,125.95-26.888,163.741c-2.78,2.005-4.427,5.223-4.427,8.651
			v24.181C319.978,345.396,322.265,349.118,325.899,350.933z"/>
	</g>
</g>
<g>
	<g>
		<path d="M256,170.667c-23.564,0-42.667,19.102-42.667,42.667S232.436,256,256,256v-21.333c-11.782,0-21.333-9.551-21.333-21.333
			c0-11.782,9.551-21.333,21.333-21.333s21.333,9.551,21.333,21.333h21.333C298.667,189.769,279.564,170.667,256,170.667z"/>
	</g>
</g>
<g>
	<g>
		<rect x="234.667" y="362.667" width="42.667" height="21.333"/>
	</g>
</g>
<g>
	<g>
		<path d="M291.125,248.459l-53.333,53.333c-2.001,2-3.125,4.713-3.125,7.541V352H256v-38.251l50.208-50.208L291.125,248.459z"/>
	</g>
</g>
<g>
	<g>
		<rect x="192" y="362.667" width="21.333" height="21.333"/>
	</g>
</g>
<g>
	<g>
		<rect x="298.667" y="362.667" width="21.333" height="21.333"/>
	</g>
</g>
<g>
</g>
<g>
</g>
<g>
</g>
<g>
</g>
<g>
</g>
<g>
</g>
<g>
</g>
<g>
</g>
<g>
</g>
<g>
</g>
<g>
</g>
<g>
</g>
<g>
</g>
<g>
</g>
<g>
</g>
</svg>
