<?xml version="1.0" encoding="iso-8859-1"?>
<!-- Generator: Adobe Illustrator 19.0.0, SVG Export Plug-In . SVG Version: 6.00 Build 0)  -->
<svg version="1.1" id="Capa_1" xmlns="http://www.w3.org/2000/svg" xmlns:xlink="http://www.w3.org/1999/xlink" x="0px" y="0px"
	 viewBox="0 0 512 512" style="enable-background:new 0 0 512 512;" xml:space="preserve">
<g>
	<g>
		<path d="M458.667,0H53.333C23.893,0.035,0.035,23.893,0,53.333v405.333C0.035,488.107,23.893,511.965,53.333,512h405.333
			c29.441-0.035,53.298-23.893,53.333-53.333V53.333C511.965,23.893,488.107,0.035,458.667,0z M490.667,458.667
			c0,17.673-14.327,32-32,32H53.333c-17.673,0-32-14.327-32-32V53.333c0-17.673,14.327-32,32-32h405.333c17.673,0,32,14.327,32,32
			V458.667z"/>
	</g>
</g>
<g>
	<g>
		<path d="M74.667,42.667c-17.673,0-32,14.327-32,32c0,17.673,14.327,32,32,32c17.673,0,32-14.327,32-32
			C106.667,56.994,92.34,42.667,74.667,42.667z M74.667,85.333C68.776,85.333,64,80.558,64,74.667C64,68.776,68.776,64,74.667,64
			c5.891,0,10.667,4.776,10.667,10.667C85.333,80.558,80.558,85.333,74.667,85.333z"/>
	</g>
</g>
<g>
	<g>
		<path d="M437.333,42.667c-17.673,0-32,14.327-32,32c0,17.673,14.327,32,32,32s32-14.327,32-32
			C469.333,56.994,455.006,42.667,437.333,42.667z M437.333,85.333c-5.891,0-10.667-4.776-10.667-10.667
			c0-5.891,4.776-10.667,10.667-10.667C443.224,64,448,68.776,448,74.667C448,80.558,443.224,85.333,437.333,85.333z"/>
	</g>
</g>
<g>
	<g>
		<path d="M437.333,405.333c-17.673,0-32,14.327-32,32s14.327,32,32,32s32-14.327,32-32S455.006,405.333,437.333,405.333z
			 M437.333,448c-5.891,0-10.667-4.776-10.667-10.667c0-5.891,4.776-10.667,10.667-10.667c5.891,0,10.667,4.776,10.667,10.667
			C448,443.224,443.224,448,437.333,448z"/>
	</g>
</g>
<g>
	<g>
		<path d="M74.667,405.333c-17.673,0-32,14.327-32,32s14.327,32,32,32c17.673,0,32-14.327,32-32S92.34,405.333,74.667,405.333z
			 M74.667,448C68.776,448,64,443.224,64,437.333c0-5.891,4.776-10.667,10.667-10.667c5.891,0,10.667,4.776,10.667,10.667
			C85.333,443.224,80.558,448,74.667,448z"/>
	</g>
</g>
<g>
	<g>
		<path d="M256,74.667C155.852,74.667,74.667,155.852,74.667,256S155.852,437.333,256,437.333
			C356.101,437.222,437.222,356.101,437.333,256C437.333,155.852,356.148,74.667,256,74.667z M256,416c-88.366,0-160-71.634-160-160
			S167.634,96,256,96c88.324,0.1,159.9,71.676,160,160C416,344.366,344.366,416,256,416z"/>
	</g>
</g>
<g>
	<g>
		<path d="M362.667,224h-51.296c-5.596-9.713-13.658-17.775-23.371-23.371v-51.296c0-11.782-9.551-21.333-21.333-21.333h-21.333
			C233.551,128,224,137.551,224,149.333v51.296c-9.713,5.596-17.775,13.658-23.371,23.371h-51.296
			C137.551,224,128,233.551,128,245.333v21.333c0,11.782,9.551,21.333,21.333,21.333h51.296c5.598,9.711,13.66,17.772,23.371,23.371
			v51.296c0,11.782,9.551,21.333,21.333,21.333h21.333c11.782,0,21.333-9.551,21.333-21.333v-51.296
			c9.711-5.598,17.772-13.66,23.371-23.371h51.296c11.782,0,21.333-9.551,21.333-21.333v-21.333
			C384,233.551,374.449,224,362.667,224z M362.667,266.667h-57.835c-4.239,0.002-8.075,2.515-9.771,6.4
			c-4.303,9.838-12.157,17.692-21.995,21.995c-3.885,1.696-6.398,5.531-6.4,9.771v57.835h-21.333v-57.835
			c-0.002-4.239-2.515-8.075-6.4-9.771c-9.838-4.303-17.692-12.157-21.995-21.995c-1.696-3.885-5.531-6.398-9.771-6.4h-57.835
			v-21.333h57.835c4.239-0.002,8.075-2.515,9.771-6.4c4.303-9.838,12.157-17.692,21.995-21.995c3.885-1.696,6.398-5.531,6.4-9.771
			v-57.835h21.333v57.835c0.002,4.239,2.515,8.075,6.4,9.771c9.838,4.303,17.692,12.157,21.995,21.995
			c1.696,3.885,5.531,6.398,9.771,6.4h57.835V266.667z"/>
	</g>
</g>
<g>
	<g>
		<rect x="245.333" y="245.333" width="21.333" height="21.333"/>
	</g>
</g>
<g>
</g>
<g>
</g>
<g>
</g>
<g>
</g>
<g>
</g>
<g>
</g>
<g>
</g>
<g>
</g>
<g>
</g>
<g>
</g>
<g>
</g>
<g>
</g>
<g>
</g>
<g>
</g>
<g>
</g>
</svg>
